<?xml version="1.0" standalone="no"?>
<!DOCTYPE svg PUBLIC "-//W3C//DTD SVG 20010904//EN" "http://www.w3.org/TR/2001/REC-SVG-20010904/DTD/svg10.dtd">
<svg version="1.0" xmlns="http://www.w3.org/2000/svg"
    width="2413.000000pt" height="1551.000000pt" viewBox="0 0 2413.000000 1551.000000"
    preserveAspectRatio="xMidYMid meet">

    <g transform="translate(0.000000,1551.000000) scale(0.100000,-0.100000)"
        fill="#000000" stroke="none">
        <path
            d="M12731 12015 c-833 -1202 -1518 -2188 -1522 -2191 -5 -3 -9 704 -9
1580 l0 1586 -722 -2 -723 -3 -1872 -2930 c-1030 -1611 -1871 -2937 -1869
-2945 2 -11 836 -1371 851 -1388 1 -1 670 976 1486 2171 l1484 2175 3 -1239 2
-1239 1093 0 1092 0 1115 1622 1115 1621 3 -3281 2 -3282 1728 0 1727 1 -57
23 c-95 40 -290 141 -390 202 -220 136 -376 261 -568 453 -483 486 -773 1087
-856 1773 -20 160 -22 518 -5 663 85 720 378 1331 872 1824 178 177 367 326
562 442 l90 54 -781 3 -782 2 0 2245 0 2245 -778 0 -778 0 -1513 -2185z" />
        <path d="M0 6985 l0 -2725 1305 0 1305 0 0 2725 0 2725 -1305 0 -1305 0 0
-2725z" />
        <path
            d="M4140 8418 c0 -753 4 -1288 9 -1282 17 17 1791 2562 1791 2568 0 3
-405 6 -900 6 l-900 0 0 -1292z" />
        <path
            d="M20415 9650 c246 -151 486 -350 672 -559 96 -107 273 -339 273 -357
0 -8 -1201 -805 -1305 -866 -8 -5 -35 23 -77 80 -172 229 -432 417 -701 507
-159 53 -237 66 -417 72 -269 9 -450 -31 -695 -152 -159 -79 -269 -160 -400
-297 -198 -205 -325 -449 -382 -734 -27 -136 -24 -415 5 -551 130 -599 590
-1045 1187 -1148 133 -23 348 -23 480 0 329 57 629 225 851 477 36 40 81 99
102 130 20 32 40 58 44 58 11 0 1318 -881 1318 -888 0 -4 -29 -46 -63 -94
-245 -342 -561 -634 -917 -848 -86 -52 -267 -144 -390 -198 -18 -8 524 -11
2008 -11 l2032 -1 0 2720 0 2720 -1862 0 -1862 0 99 -60z" />
        <path
            d="M8940 6545 l0 -565 115 0 115 0 0 197 0 197 57 58 c32 32 62 58 68
58 5 -1 91 -115 190 -255 l179 -255 133 0 c73 0 133 3 133 6 0 5 -426 592
-473 652 -8 10 44 68 219 243 l229 229 -141 0 -141 0 -224 -237 -224 -236 -3
236 -2 237 -115 0 -115 0 0 -565z" />
        <path
            d="M4140 5687 l0 -1417 890 0 c490 0 890 3 890 6 0 5 -1765 2810 -1776
2823 -2 2 -4 -633 -4 -1412z" />
        <path
            d="M11960 6925 l0 -115 -55 0 -55 0 0 -75 0 -75 54 0 55 0 3 -282 c3
-260 5 -286 23 -322 36 -71 59 -81 201 -85 l124 -3 0 81 0 81 -46 0 c-88 0
-84 -14 -84 275 l0 255 65 0 65 0 0 75 0 75 -65 0 -65 0 0 115 0 115 -110 0
-110 0 0 -115z" />
        <path
            d="M11218 6830 c-112 -20 -221 -95 -271 -188 -73 -134 -76 -333 -8 -478
37 -80 96 -138 179 -177 64 -31 72 -32 192 -32 125 0 126 0 202 38 157 77 225
213 216 427 -10 200 -93 329 -252 389 -63 23 -189 34 -258 21z m153 -184 c52
-9 106 -67 126 -135 20 -71 14 -220 -12 -271 -40 -79 -88 -110 -170 -110 -127
0 -191 70 -202 224 -12 162 47 276 154 296 21 4 45 6 53 5 8 -2 31 -6 51 -9z" />
        <path
            d="M12770 6829 c-206 -40 -321 -195 -323 -434 -2 -218 97 -372 274 -426
93 -28 235 -23 324 11 83 32 173 123 204 204 68 183 43 392 -63 520 -85 104
-259 156 -416 125z m192 -195 c67 -34 102 -120 102 -250 0 -79 -4 -99 -28
-148 -37 -75 -73 -100 -157 -104 -87 -5 -137 19 -176 85 -27 46 -28 54 -28
173 0 110 3 130 22 167 13 23 36 51 52 63 54 38 152 44 213 14z" />
        <path
            d="M9961 6783 c52 -135 299 -841 299 -855 0 -37 -29 -87 -59 -102 -16
-9 -53 -16 -81 -16 l-50 0 0 -85 0 -84 36 -7 c55 -10 154 4 204 29 26 12 57
39 72 62 17 24 96 234 202 540 95 275 177 510 181 523 l7 23 -114 -3 -113 -3
-84 -297 c-46 -164 -87 -298 -90 -298 -4 0 -38 107 -76 238 -38 130 -77 265
-87 300 l-19 62 -119 0 -120 0 11 -27z" />
        <path
            d="M6930 5033 c0 -208 5 -409 10 -447 27 -185 141 -298 334 -333 207
-37 403 27 493 161 65 96 67 107 71 574 l3 422 -115 0 -116 0 0 -387 c0 -230
-5 -406 -11 -433 -23 -102 -84 -144 -209 -145 -101 0 -149 19 -186 75 -38 57
-44 128 -44 523 l0 367 -115 0 -115 0 0 -377z" />
        <path d="M8970 5310 l0 -100 105 0 105 0 0 100 0 100 -105 0 -105 0 0 -100z" />
        <path d="M12520 5310 l0 -100 105 0 105 0 0 100 0 100 -105 0 -105 0 0 -100z" />
        <path
            d="M12950 5225 l0 -115 -60 0 -60 0 0 -75 0 -75 59 0 60 0 3 -292 c3
-258 5 -297 21 -325 32 -59 127 -88 248 -77 l69 7 0 78 0 79 -49 0 c-82 0 -81
-5 -81 281 l0 249 65 0 65 0 0 75 0 75 -65 0 -65 0 0 115 0 115 -105 0 -105 0
0 -115z" />
        <path
            d="M10450 5126 c-190 -42 -294 -194 -294 -431 0 -216 87 -363 251 -425
49 -18 74 -21 158 -18 86 3 109 8 165 34 79 37 141 97 175 169 14 30 25 56 25
59 0 3 -49 6 -108 6 l-108 0 -17 -29 c-9 -16 -33 -36 -53 -46 -49 -23 -153
-17 -191 11 -36 26 -73 98 -73 141 l0 33 280 0 280 0 0 73 c-1 238 -118 395
-320 427 -79 12 -100 12 -170 -4z m194 -194 c37 -22 62 -63 71 -119 l7 -43
-171 0 -171 0 0 28 c0 33 31 102 53 121 52 42 150 49 211 13z" />
        <path
            d="M11900 5129 c-119 -20 -215 -94 -240 -184 -19 -67 -9 -155 23 -203
41 -62 119 -95 379 -162 122 -32 132 -129 16 -161 -50 -13 -137 -5 -178 16
-35 18 -60 52 -60 82 0 23 -2 23 -111 23 l-112 0 7 -46 c16 -121 100 -204 237
-234 79 -18 269 -8 334 16 74 28 149 105 169 173 19 64 20 92 5 146 -26 96
-99 142 -308 194 -170 42 -211 69 -197 125 13 54 131 74 213 37 31 -14 44 -28
54 -55 l13 -36 104 0 104 0 -6 38 c-24 135 -142 223 -316 235 -41 3 -100 1
-130 -4z" />
        <path
            d="M8435 5121 c-49 -13 -100 -40 -144 -77 l-41 -36 0 51 0 51 -105 0
-105 0 0 -420 0 -420 110 0 110 0 0 284 c0 277 0 284 23 316 40 60 70 75 147
75 61 0 73 -3 95 -26 15 -14 30 -43 35 -65 5 -21 10 -162 10 -311 l0 -273 105
0 105 0 0 323 c0 358 -5 395 -60 455 -16 18 -51 42 -77 54 -51 23 -158 32
-208 19z" />
        <path
            d="M11419 5103 c-37 -20 -66 -45 -94 -82 l-40 -54 -3 71 -3 72 -99 0
-100 0 0 -420 0 -420 110 0 109 0 3 269 c3 254 4 271 24 297 40 54 68 67 154
72 l80 5 0 108 0 109 -43 0 c-28 0 -63 -10 -98 -27z" />
        <path d="M8970 4690 l0 -420 105 0 105 0 0 420 0 420 -105 0 -105 0 0 -420z" />
        <path
            d="M9397 4793 c63 -175 130 -364 151 -421 l36 -103 111 3 110 3 147 410
c81 226 148 413 148 418 0 4 -51 7 -112 7 l-113 0 -84 -296 c-47 -162 -88
-297 -91 -299 -4 -3 -46 129 -92 293 l-85 297 -120 3 -121 3 115 -318z" />
        <path d="M12520 4690 l0 -420 105 0 105 0 0 420 0 420 -105 0 -105 0 0 -420z" />
        <path
            d="M13330 5101 c0 -5 68 -200 151 -433 164 -462 167 -474 115 -527 -21
-20 -37 -26 -91 -29 l-65 -4 0 -83 c0 -95 0 -95 85 -95 126 0 203 38 246 121
19 37 369 1034 369 1051 0 5 -50 7 -112 6 l-111 -3 -85 -302 c-47 -167 -88
-300 -91 -297 -3 3 -45 139 -92 302 l-87 297 -116 3 c-68 1 -116 -1 -116 -7z" />
        <path
            d="M8881 3795 c-203 -46 -335 -179 -388 -391 -23 -94 -23 -313 0 -406
68 -276 277 -424 572 -405 229 15 387 128 445 315 33 107 38 102 -94 102
l-113 0 -6 -28 c-3 -15 -21 -50 -39 -77 -46 -68 -108 -99 -210 -104 -215 -9
-337 133 -338 395 0 108 14 176 51 251 53 109 137 156 279 155 134 0 210 -48
247 -152 l18 -50 113 0 114 0 -7 43 c-28 168 -129 289 -286 339 -84 27 -268
34 -358 13z" />
        <path
            d="M16994 3795 c-258 -56 -404 -272 -404 -596 0 -253 91 -443 261 -542
64 -38 187 -67 278 -67 280 1 473 146 515 388 l6 32 -115 0 -114 0 -12 -40
c-16 -51 -70 -115 -123 -143 -34 -18 -57 -22 -141 -22 -93 0 -104 2 -155 31
-69 39 -123 114 -146 203 -24 95 -16 295 15 375 43 109 118 169 233 185 161
22 278 -35 313 -153 l12 -41 115 -3 115 -3 -9 58 c-27 170 -156 300 -337 339
-82 17 -226 17 -307 -1z" />
        <path
            d="M3690 3200 l0 -580 110 0 110 0 0 472 c0 260 4 468 8 463 5 -6 57
-203 117 -440 60 -236 112 -445 117 -462 l9 -33 118 0 119 0 118 473 119 472
3 -472 2 -473 110 0 110 0 0 580 0 580 -175 0 -174 0 -9 -34 c-6 -19 -56 -216
-113 -437 -56 -222 -104 -406 -106 -408 -2 -2 -5 -2 -7 0 -3 3 -56 200 -118
439 l-113 435 -178 3 -177 2 0 -580z" />
        <path d="M5100 3680 l0 -100 110 0 110 0 0 100 0 100 -110 0 -110 0 0 -100z" />
        <path d="M17840 3200 l0 -580 110 0 110 0 0 580 0 580 -110 0 -110 0 0 -580z" />
        <path
            d="M19250 3200 l0 -580 105 0 105 0 0 55 c0 30 3 55 7 55 3 0 22 -18 41
-40 19 -23 57 -53 86 -67 71 -37 187 -38 261 -3 109 53 185 165 211 309 17 96
17 137 -1 235 -19 108 -62 193 -130 254 -64 59 -124 82 -210 82 -87 0 -147
-23 -205 -80 l-50 -49 0 205 0 204 -110 0 -110 0 0 -580z m500 90 c76 -39 118
-164 100 -302 -10 -83 -29 -127 -73 -165 -60 -53 -168 -56 -228 -6 -51 43 -71
97 -77 199 -8 151 29 244 113 280 45 20 120 17 165 -6z" />
        <path
            d="M14110 3595 l0 -115 -55 0 -55 0 0 -80 0 -80 55 0 55 0 0 -254 c0
-337 10 -383 90 -431 27 -15 58 -20 152 -23 l118 -4 0 86 0 86 -50 0 c-37 0
-55 5 -70 20 -19 19 -20 33 -20 270 l0 250 70 0 70 0 0 80 0 80 -70 0 -70 0 0
115 0 115 -110 0 -110 0 0 -115z" />
        <path
            d="M5813 3499 c-196 -33 -323 -209 -323 -449 0 -77 21 -182 49 -244 26
-60 104 -142 161 -171 98 -50 235 -55 346 -14 108 41 205 161 221 274 l6 45
-107 0 c-93 0 -107 -2 -112 -17 -3 -10 -15 -37 -26 -61 -29 -58 -64 -75 -144
-70 -53 3 -69 9 -94 33 -46 44 -65 113 -64 235 1 166 45 242 147 256 83 12
153 -33 172 -108 l7 -28 110 0 111 0 -7 43 c-16 100 -97 207 -189 247 -42 19
-153 41 -192 39 -11 -1 -44 -5 -72 -10z" />
        <path
            d="M7350 3499 c-117 -20 -229 -98 -283 -197 -72 -133 -75 -359 -6 -494
79 -154 265 -239 458 -209 200 31 321 157 351 366 27 193 -38 378 -165 465
-89 62 -235 90 -355 69z m162 -189 c125 -35 181 -269 102 -426 -37 -75 -83
-104 -166 -104 -93 0 -140 27 -181 105 -30 57 -36 222 -12 295 37 111 139 162
257 130z" />
        <path
            d="M10010 3499 c-166 -28 -298 -159 -330 -329 -50 -261 57 -483 265
-554 177 -59 384 -8 491 122 125 151 132 435 16 604 -83 121 -269 187 -442
157z m175 -198 c87 -39 120 -109 120 -256 0 -89 -3 -106 -28 -158 -37 -75 -88
-107 -171 -107 -99 0 -155 40 -191 134 -14 35 -16 68 -13 153 6 148 37 207
125 239 53 18 111 17 158 -5z" />
        <path
            d="M14880 3499 c-77 -13 -167 -66 -216 -126 -144 -176 -130 -515 27
-672 183 -182 524 -128 639 103 l31 61 -107 3 -107 3 -31 -34 c-17 -19 -49
-40 -70 -47 -53 -17 -138 -7 -177 21 -38 27 -68 90 -69 142 l0 37 286 0 287 0
-5 103 c-8 164 -60 273 -162 344 -82 56 -215 82 -326 62z m179 -199 c44 -22
81 -86 81 -138 l0 -32 -171 0 -172 0 6 46 c13 118 144 182 256 124z" />
        <path
            d="M6785 3476 c-53 -25 -77 -47 -119 -110 l-26 -39 0 77 0 76 -105 0
-105 0 0 -430 0 -430 109 0 109 0 4 263 c3 231 5 266 22 300 31 62 68 81 164
86 l82 3 0 114 0 114 -42 0 c-24 0 -65 -11 -93 -24z" />
        <path
            d="M11071 3489 c-44 -13 -77 -34 -123 -78 l-38 -35 0 52 0 52 -105 0
-105 0 0 -430 0 -430 110 0 110 0 0 288 c0 316 3 332 63 376 39 29 135 30 167
1 47 -41 50 -66 50 -375 l0 -290 110 0 110 0 0 294 c0 288 0 294 23 327 60 90
194 89 239 -1 16 -31 18 -69 18 -327 l0 -293 111 0 110 0 -3 338 c-3 331 -3
338 -27 390 -47 103 -147 159 -271 150 -76 -6 -159 -44 -193 -90 -12 -16 -25
-28 -29 -28 -5 0 -23 16 -40 36 -46 53 -101 77 -183 80 -38 2 -85 -1 -104 -7z" />
        <path
            d="M12492 3483 c-27 -9 -65 -36 -98 -70 l-54 -55 0 61 0 61 -105 0 -105
0 0 -605 0 -605 110 0 110 0 0 230 0 230 40 -44 c56 -60 126 -90 215 -91 112
0 198 48 265 148 59 88 82 170 83 302 1 121 -15 193 -61 278 -35 65 -120 141
-178 161 -59 20 -165 19 -222 -1z m156 -202 c58 -41 76 -91 80 -221 3 -110 2
-117 -25 -170 -39 -76 -77 -100 -162 -100 -127 0 -182 67 -189 231 -6 148 28
242 102 275 48 22 154 14 194 -15z" />
        <path
            d="M15916 3490 c-48 -15 -95 -53 -134 -109 l-37 -54 -3 77 -3 76 -104 0
-105 0 0 -430 0 -430 114 0 115 0 3 274 c3 260 4 276 24 303 41 55 80 73 160
73 l74 0 0 115 0 115 -37 -1 c-21 0 -51 -5 -67 -9z" />
        <path d="M5100 3050 l0 -430 110 0 110 0 0 430 0 430 -110 0 -110 0 0 -430z" />
        <path
            d="M13120 3147 c0 -381 4 -408 69 -475 98 -101 305 -96 425 9 l46 41 0
-51 0 -51 110 0 110 0 0 430 0 430 -109 0 -109 0 -4 -287 c-3 -269 -4 -290
-24 -323 -57 -98 -207 -119 -268 -37 -20 27 -21 41 -24 338 l-3 309 -110 0
-109 0 0 -333z" />
        <path
            d="M18270 3160 c0 -193 4 -339 11 -370 24 -112 111 -181 240 -188 103
-6 174 16 240 76 l49 44 0 -51 0 -51 110 0 110 0 0 430 0 430 -109 0 -110 0
-3 -292 c-3 -272 -4 -295 -23 -326 -58 -97 -224 -109 -272 -20 -16 29 -18 67
-21 336 l-4 302 -109 0 -109 0 0 -320z" />
    </g>
</svg>