<svg width="274" height="292" viewBox="0 0 274 292" fill="none" xmlns="http://www.w3.org/2000/svg">
    <g clip-path="url(#clip0_2_9)">
        <path d="M202.747 7.37015L199.678 69.155L147.705 35.6049L202.747 7.37015Z" fill="#94E5D2"
            fill-opacity="0.75" />
        <path
            d="M274.5 144C255.655 144 236.995 147.828 219.585 155.266C202.175 162.704 186.355 173.605 173.03 187.348C159.705 201.091 149.135 217.407 141.923 235.363C134.712 253.319 131 272.564 131 292H167.15C167.15 277.461 169.927 263.064 175.322 249.631C180.717 236.198 188.624 223.993 198.592 213.712C208.561 203.431 220.395 195.276 233.419 189.712C246.443 184.148 260.403 181.284 274.5 181.284V144Z"
            fill="#745344" fill-opacity="0.75" />
        <path
            d="M274.5 127C252.898 127 231.507 131.255 211.549 139.522C191.591 147.789 173.456 159.906 158.181 175.181C142.906 190.456 130.789 208.591 122.522 228.549C114.255 248.507 110 269.898 110 291.5L113.998 291.5C113.998 270.423 118.149 249.551 126.215 230.078C134.281 210.605 146.104 192.912 161.008 178.008C175.912 163.104 193.605 151.281 213.078 143.215C232.551 135.149 253.423 130.998 274.5 130.998L274.5 127Z"
            fill="#94E5D2" fill-opacity="0.75" />
        <path
            d="M274.5 127C252.898 127 231.507 131.255 211.549 139.522C191.591 147.789 173.456 159.906 158.181 175.181C142.906 190.456 130.789 208.591 122.522 228.549C114.255 248.507 110 269.898 110 291.5L113.998 291.5C113.998 270.423 118.149 249.551 126.215 230.078C134.281 210.605 146.104 192.912 161.008 178.008C175.912 163.104 193.605 151.281 213.078 143.215C232.551 135.149 253.423 130.998 274.5 130.998L274.5 127Z"
            fill="#94E5D2" fill-opacity="0.75" />
        <path
            d="M274.5 127C252.898 127 231.507 131.255 211.549 139.522C191.591 147.789 173.456 159.906 158.181 175.181C142.906 190.456 130.789 208.591 122.522 228.549C114.255 248.507 110 269.898 110 291.5L113.998 291.5C113.998 270.423 118.149 249.551 126.215 230.078C134.281 210.605 146.104 192.912 161.008 178.008C175.912 163.104 193.605 151.281 213.078 143.215C232.551 135.149 253.423 130.998 274.5 130.998L274.5 127Z"
            fill="#94E5D2" fill-opacity="0.75" />
        <path
            d="M274.5 127C252.898 127 231.507 131.255 211.549 139.522C191.591 147.789 173.456 159.906 158.181 175.181C142.906 190.456 130.789 208.591 122.522 228.549C114.255 248.507 110 269.898 110 291.5L113.998 291.5C113.998 270.423 118.149 249.551 126.215 230.078C134.281 210.605 146.104 192.912 161.008 178.008C175.912 163.104 193.605 151.281 213.078 143.215C232.551 135.149 253.423 130.998 274.5 130.998L274.5 127Z"
            fill="#94E5D2" fill-opacity="0.75" />
        <path
            d="M274.5 97C248.958 97 223.666 102.031 200.068 111.805C176.47 121.58 155.029 135.907 136.968 153.968C118.907 172.029 104.58 193.47 94.8054 217.068C85.0309 240.666 80 265.958 80 291.5H102.316C102.316 268.889 106.77 246.498 115.423 225.608C124.076 204.718 136.759 185.736 152.748 169.748C168.736 153.759 187.718 141.076 208.608 132.423C229.498 123.77 251.889 119.316 274.5 119.316V97Z"
            fill="#94E5D2" fill-opacity="0.75" />
        <path
            d="M274.5 97C248.958 97 223.666 102.031 200.068 111.805C176.47 121.58 155.029 135.907 136.968 153.968C118.907 172.029 104.58 193.47 94.8054 217.068C85.0309 240.666 80 265.958 80 291.5H102.316C102.316 268.889 106.77 246.498 115.423 225.608C124.076 204.718 136.759 185.736 152.748 169.748C168.736 153.759 187.718 141.076 208.608 132.423C229.498 123.77 251.889 119.316 274.5 119.316V97Z"
            fill="#94E5D2" fill-opacity="0.75" />
        <path
            d="M274.5 97C248.958 97 223.666 102.031 200.068 111.805C176.47 121.58 155.029 135.907 136.968 153.968C118.907 172.029 104.58 193.47 94.8054 217.068C85.0309 240.666 80 265.958 80 291.5H102.316C102.316 268.889 106.77 246.498 115.423 225.608C124.076 204.718 136.759 185.736 152.748 169.748C168.736 153.759 187.718 141.076 208.608 132.423C229.498 123.77 251.889 119.316 274.5 119.316V97Z"
            fill="#94E5D2" fill-opacity="0.75" />
        <path
            d="M274.5 97C248.958 97 223.666 102.031 200.068 111.805C176.47 121.58 155.029 135.907 136.968 153.968C118.907 172.029 104.58 193.47 94.8054 217.068C85.0309 240.666 80 265.958 80 291.5H102.316C102.316 268.889 106.77 246.498 115.423 225.608C124.076 204.718 136.759 185.736 152.748 169.748C168.736 153.759 187.718 141.076 208.608 132.423C229.498 123.77 251.889 119.316 274.5 119.316V97Z"
            fill="#94E5D2" fill-opacity="0.75" />
        <rect x="81.9953" y="80.1098" width="49.8933" height="49.8933"
            transform="rotate(6.7745 81.9953 80.1098)" stroke="#745344" stroke-opacity="0.75"
            stroke-width="20" />
        <circle cx="33" cy="188" r="28" fill="#94E5D2" fill-opacity="0.75" />
        <circle cx="56.5" cy="209.5" r="14.5" fill="#745344" fill-opacity="0.75" />
    </g>
    <defs>
        <clipPath id="clip0_2_9">
            <rect width="274" height="292" fill="white" />
        </clipPath>
    </defs>
</svg>
    