<svg width="289" height="337" viewBox="0 0 289 337" fill="none" xmlns="http://www.w3.org/2000/svg">
<g clip-path="url(#clip0_2_9)">
<path d="M189.361 8.75327L187.024 55.8117L147.439 30.2583L189.361 8.75327Z" fill="#94E5D2" fill-opacity="0.75"/>
<path d="M289 112C260.372 112 232.024 117.82 205.575 129.127C179.126 140.434 155.094 157.008 134.851 177.901C114.608 198.794 98.5498 223.598 87.5943 250.896C76.6387 278.195 71 307.453 71 337L107.452 337C107.452 312.393 112.148 288.028 121.272 265.294C130.396 242.56 143.768 221.904 160.627 204.504C177.485 187.105 197.498 173.303 219.525 163.886C241.551 154.47 265.159 149.623 289 149.623L289 112Z" fill="#745344" fill-opacity="0.75"/>
<path d="M289 94C258.139 94 227.581 100.272 199.069 112.459C170.558 124.646 144.652 142.508 122.83 165.027C101.008 187.545 83.6982 214.278 71.8883 243.699C60.0784 273.121 54 304.654 54 336.5L62.4651 336.5C62.4651 305.802 68.3246 275.404 79.709 247.042C91.0935 218.68 107.78 192.91 128.816 171.203C149.851 149.496 174.824 132.277 202.309 120.53C229.793 108.782 259.251 102.735 289 102.735L289 94Z" fill="#94E5D2" fill-opacity="0.75"/>
<path d="M289 94C258.139 94 227.581 100.272 199.069 112.459C170.558 124.646 144.652 142.508 122.83 165.027C101.008 187.545 83.6982 214.278 71.8883 243.699C60.0784 273.121 54 304.654 54 336.5L62.4651 336.5C62.4651 305.802 68.3246 275.404 79.709 247.042C91.0935 218.68 107.78 192.91 128.816 171.203C149.851 149.496 174.824 132.277 202.309 120.53C229.793 108.782 259.251 102.735 289 102.735L289 94Z" fill="#94E5D2" fill-opacity="0.75"/>
<path d="M289 94C258.139 94 227.581 100.272 199.069 112.459C170.558 124.646 144.652 142.508 122.83 165.027C101.008 187.545 83.6982 214.278 71.8883 243.699C60.0784 273.121 54 304.654 54 336.5L62.4651 336.5C62.4651 305.802 68.3246 275.404 79.709 247.042C91.0935 218.68 107.78 192.91 128.816 171.203C149.851 149.496 174.824 132.277 202.309 120.53C229.793 108.782 259.251 102.735 289 102.735L289 94Z" fill="#94E5D2" fill-opacity="0.75"/>
<path d="M289 94C258.139 94 227.581 100.272 199.069 112.459C170.558 124.646 144.652 142.508 122.83 165.027C101.008 187.545 83.6982 214.278 71.8883 243.699C60.0784 273.121 54 304.654 54 336.5L62.4651 336.5C62.4651 305.802 68.3246 275.404 79.709 247.042C91.0935 218.68 107.78 192.91 128.816 171.203C149.851 149.496 174.824 132.277 202.309 120.53C229.793 108.782 259.251 102.735 289 102.735L289 94Z" fill="#94E5D2" fill-opacity="0.75"/>
<path d="M289 61C253.937 61 219.217 68.126 186.824 81.9712C154.43 95.8164 124.996 116.11 100.202 141.692C75.4092 167.275 55.7422 197.646 42.3242 231.071C28.9061 264.496 22 300.321 22 336.5L46.3057 336.5C46.3057 303.614 52.5832 271.051 64.7797 240.668C76.9762 210.286 94.853 182.68 117.389 159.426C139.925 136.172 166.68 117.726 196.125 105.142C225.57 92.5568 257.129 86.0795 289 86.0795L289 61Z" fill="#94E5D2" fill-opacity="0.75"/>
<path d="M289 61C253.937 61 219.217 68.126 186.824 81.9712C154.43 95.8164 124.996 116.11 100.202 141.692C75.4092 167.275 55.7422 197.646 42.3242 231.071C28.9061 264.496 22 300.321 22 336.5L46.3057 336.5C46.3057 303.614 52.5832 271.051 64.7797 240.668C76.9762 210.286 94.853 182.68 117.389 159.426C139.925 136.172 166.68 117.726 196.125 105.142C225.57 92.5568 257.129 86.0795 289 86.0795L289 61Z" fill="#94E5D2" fill-opacity="0.75"/>
<path d="M289 61C253.937 61 219.217 68.126 186.824 81.9712C154.43 95.8164 124.996 116.11 100.202 141.692C75.4092 167.275 55.7422 197.646 42.3242 231.071C28.9061 264.496 22 300.321 22 336.5L46.3057 336.5C46.3057 303.614 52.5832 271.051 64.7797 240.668C76.9762 210.286 94.853 182.68 117.389 159.426C139.925 136.172 166.68 117.726 196.125 105.142C225.57 92.5568 257.129 86.0795 289 86.0795L289 61Z" fill="#94E5D2" fill-opacity="0.75"/>
<path d="M289 61C253.937 61 219.217 68.126 186.824 81.9712C154.43 95.8164 124.996 116.11 100.202 141.692C75.4092 167.275 55.7422 197.646 42.3242 231.071C28.9061 264.496 22 300.321 22 336.5L46.3057 336.5C46.3057 303.614 52.5832 271.051 64.7797 240.668C76.9762 210.286 94.853 182.68 117.389 159.426C139.925 136.172 166.68 117.726 196.125 105.142C225.57 92.5568 257.129 86.0795 289 86.0795L289 61Z" fill="#94E5D2" fill-opacity="0.75"/>
<rect x="61.7517" y="45.7535" width="50.8481" height="50.8481" transform="rotate(6.7745 61.7517 45.7535)" stroke="#745344" stroke-opacity="0.75" stroke-width="22"/>
<circle cx="25" cy="164" r="19" fill="#94E5D2" fill-opacity="0.75"/>
<circle cx="40.5" cy="182.5" r="11.5" fill="#745344" fill-opacity="0.75"/>
</g>
<defs>
<clipPath id="clip0_2_9">
<rect width="289" height="337" fill="white"/>
</clipPath>
</defs>
</svg>
